<svg xmlns="http://www.w3.org/2000/svg" viewBox="0 0 313.39 180.87"><defs><style>.cls-1{font-size:93.96px;}.cls-1,.cls-3,.cls-5{fill:#2a363b;}.cls-1,.cls-3{font-family:CaviarDreams, Caviar Dreams;}.cls-2{fill:#f48885;}.cls-3{font-size:49.27px;letter-spacing:0.16em;}.cls-4{letter-spacing:0.19em;}.cls-5{font-size:27.54px;font-family:BebasNeue-Regular, Bebas Neue;letter-spacing:0.05em;}.cls-6{letter-spacing:0em;}.cls-7{letter-spacing:0.05em;}.cls-8{letter-spacing:0.05em;}.cls-9{letter-spacing:0.25em;}.cls-10{letter-spacing:0.25em;}.cls-11{letter-spacing:0.05em;}</style></defs><title>logo</title><g id="Layer_2" data-name="Layer 2"><g id="desktop"><g id="logo"><text class="cls-1" transform="translate(0 83.69)">RHONA</text><rect class="cls-2" x="128.11" y="32.75" width="14.37" height="13.99" rx="1.4" ry="1.4" transform="matrix(0, -1, 1, 0, 95.19, 174.94)"/><path class="cls-2" d="M140.85,53h-5.13a1.41,1.41,0,0,0-1.41,1.4l-.06,22.51a1.42,1.42,0,0,0,.94,1.33,32.84,32.84,0,0,0,5.35,1.4,1.41,1.41,0,0,0,1.65-1.38l.06-23.84A1.39,1.39,0,0,0,140.85,53Z"/><path class="cls-2" d="M152.43,25.8l16,0a1.41,1.41,0,0,0,1-2.41,33,33,0,0,0-16.7-8.85A1.41,1.41,0,0,0,151.05,16l0,8.44A1.41,1.41,0,0,0,152.43,25.8Z"/><path class="cls-2" d="M142.33,24.37l0-8.58a1.42,1.42,0,0,0-1.65-1.39,33,33,0,0,0-17.53,8.91,1.4,1.4,0,0,0,1,2.41l16.78.05A1.4,1.4,0,0,0,142.33,24.37Z"/><path class="cls-2" d="M126.86,53h-3.24a1.42,1.42,0,0,1-1.4-1.41V46.89l0-13a1.41,1.41,0,0,0-1.4-1.41H117.4a1.43,1.43,0,0,0-1.29.83,33.13,33.13,0,0,0,9.83,39.81,1.41,1.41,0,0,0,2.28-1.1l0-17.69A1.39,1.39,0,0,0,126.86,53Z"/><path class="cls-2" d="M175.16,32.67l-22.75-.07A1.4,1.4,0,0,0,151,34l0,11.57a1.4,1.4,0,0,0,1.4,1.4l10,0a1.4,1.4,0,0,1,1.4,1.41v3.24a1.4,1.4,0,0,1-1.4,1.4l-10,0a1.41,1.41,0,0,0-1.41,1.4l-.06,23.7a1.42,1.42,0,0,0,1.68,1.39,33.12,33.12,0,0,0,23.88-46A1.41,1.41,0,0,0,175.16,32.67Z"/><text class="cls-3" transform="translate(3.57 133.83)">FILGUER<tspan class="cls-4" x="236.26" y="0">A</tspan><tspan x="276.72" y="0">S</tspan></text><text class="cls-5" transform="translate(3.84 175.36)">digi<tspan class="cls-6" x="38.03" y="0">t</tspan><tspan x="48.17" y="0">al A</tspan><tspan class="cls-7" x="89.65" y="0">r</tspan><tspan class="cls-8" x="102.07" y="0">tis</tspan><tspan class="cls-9" x="131.76" y="0">t</tspan><tspan x="148.67" y="0"> </tspan><tspan class="cls-10" x="154.45" y="0">|</tspan><tspan x="175.11" y="0" xml:space="preserve"> Illustr</tspan><tspan class="cls-6" x="257.21" y="0">a</tspan><tspan class="cls-11" x="268.36" y="0">t</tspan><tspan x="279.65" y="0">or</tspan></text></g></g></g></svg>